<?xml version="1.0" encoding="utf-8"?>
<!-- Generator: Adobe Illustrator 19.2.1, SVG Export Plug-In . SVG Version: 6.00 Build 0)  -->
<svg version="1.1" id="layer" xmlns="http://www.w3.org/2000/svg" xmlns:xlink="http://www.w3.org/1999/xlink" x="0px" y="0px"
	 viewBox="0 0 652 652" style="enable-background:new 0 0 652 652;" xml:space="preserve">
<style type="text/css">
	.st0{fill:#48f702;}
	.st1{fill:none;stroke:#272425;stroke-width:1.0834;stroke-linejoin:round;}
</style>
<polyline class="st0" points="234.6,383.5 221.7,383.5 221.7,378.7 253,378.7 253,383.5 240.2,383.5 240.2,407.4 234.6,407.4 "/>
<path class="st0" d="M264.7,378.6H282c6.8,0,11.7,1.5,11.7,8.6c0,5.3-3.8,8.2-8,8.4l8.8,11.7h-6.9l-8.3-11.3h-8.9v11.3h-5.6
	 M281.1,391.4c4.6,0,6.9-0.7,6.9-4.1c0-3.3-2.3-4-6.9-4h-10.8v8.1H281.1z"/>
<polyline class="st0" points="307.3,378.7 333.1,378.7 333.1,383.5 312.9,383.5 312.9,390.2 330.3,390.2 330.3,395 312.9,395 
	312.9,402.6 333.6,402.6 333.6,407.4 307.3,407.4 "/>
<polyline class="st0" points="345.6,378.7 371.3,378.7 371.3,383.5 351.2,383.5 351.2,390.2 368.5,390.2 368.5,395 351.2,395 
	351.2,402.6 371.8,402.6 371.8,407.4 345.6,407.4 "/>
<path class="st0" d="M406.1,387.4c-0.9-2.6-3.2-4.8-10.1-4.8c-3.8,0-7.6,1-7.6,3.6c0,1.2,0.7,2.5,6.4,3.2l6.8,1
	c6.5,1,10.2,3.5,10.2,8.3c0,6.8-6.5,9.3-14.1,9.3c-12.3,0-15.3-6.1-16-8.3l5.4-1.7c1,2.1,3.2,5.1,10.7,5.1c4.6,0,8.4-1.5,8.4-4
	c0-1.9-2.1-3.1-6.2-3.6l-6.9-0.9c-6.6-0.9-10.4-3.8-10.4-8.2c0-8.6,11.2-8.6,13.4-8.6c12.3,0,14.5,5.7,15.2,7.7"/>
<polyline class="st0" points="434.4,383.5 421.6,383.5 421.6,378.7 452.9,378.7 452.9,383.5 440,383.5 440,407.4 434.4,407.4 "/>
<path class="st0" d="M470.6,378.6h6.4l13.9,28.7H485l-3-6.6h-16.5l-3,6.6h-6 M479.8,395.9l-6-12.8l-6,12.8H479.8z"/>
<polyline class="st0" points="502,378.7 508,378.7 527.2,399.4 527.2,378.7 532.5,378.7 532.5,407.4 527.4,407.4 507.4,385.9 
	507.4,407.4 502,407.4 "/>
<path class="st0" d="M546.8,378.7h13.8c9.1,0,16.4,3.8,16.4,14.2c0,9.8-6.6,14.5-16.1,14.5h-14.1 M558.1,402.6
	c9.6,0,13.3-2.9,13.3-9.6c0-7-3.9-9.4-13.3-9.4h-5.7v19.1H558.1z"/>
<path class="st0" d="M611.8,387.4c-0.9-2.6-3.2-4.8-10.1-4.8c-3.8,0-7.6,1-7.6,3.6c0,1.2,0.7,2.5,6.4,3.2l6.8,1
	c6.4,1,10.2,3.5,10.2,8.3c0,6.8-6.5,9.3-14.1,9.3c-12.3,0-15.3-6.1-16-8.3l5.4-1.7c1,2.1,3.1,5.1,10.7,5.1c4.6,0,8.4-1.5,8.4-4
	c0-1.9-2.1-3.1-6.2-3.6l-6.9-0.9c-6.6-0.9-10.3-3.8-10.3-8.2c0-8.6,11.2-8.6,13.4-8.6c12.4,0,14.5,5.7,15.2,7.7"/>
<path class="st0" d="M265,255.2c-0.9-3.9-2.5-7.5-4.4-9.9c-2.3-3-8.6-7.2-14.1-7.2c-7.2,0-10.5,5.5-10.5,10.5
	c-0.1,7.3,4.5,9.7,14.3,12.5c16.8,5,24.3,12,24.3,27.4c0,14.5-10,24.3-23.2,24.3c-4.9,0-9.3-1.7-12.1-3.1c-3-1.4-5.3-2.6-7.3-2.6
	c-2.1,0-3.5,2.6-4.6,4.9h-6.4v-27.6h6.4c0.6,3.5,1.9,6.3,4,9.5c3.2,5.1,9.6,9.4,18.4,9.4c5.4,0,9.4-4.6,9.4-9.8
	c0-7.3-6.8-10.4-11-12.2l-10-4.1c-11.6-4.9-16.2-12.1-16.2-24.9c0-13.6,10.4-22.1,23.2-22.1c4,0,8.2,0.8,10.7,1.5
	c2,0.6,4,1.3,5.9,1.3c1.6,0,2.6-1,3.5-1.9h6.3v24.2"/>
<path class="st0" d="M282.6,231h31v7.3l-4.1,0.6c-2.6,0.5-4.1,4.2-4.1,10.3v27.4c0,20.2,1.5,27.9,11.9,27.9
	c6.7,0,11.4-4.1,11.4-20.3v-35c0-4.9-0.8-9.8-4.4-10.3l-4-0.6V231h24.8v7.3l-4.1,0.6c-3.5,0.5-4.2,5.4-4.2,10.3V282
	c0,24.2-7.2,30.7-20.4,30.7c-20.3,0-25.6-10.5-25.6-33v-30.5c0-6-1.5-9.8-4.1-10.3l-4.1-0.6"/>
<path class="st0" d="M371,293.7c0,5.9,1,9.5,4.2,10.3l2.8,0.7v7.3h-23.5v-7.3l4.1-0.7c3.1-0.6,4.1-4.4,4.1-10.3v-44.5
	c0-6-1.6-9.8-4.1-10.3l-4.1-0.6v-7.3h28.8l8,39.5l7.6-39.5h28.2v7.3l-4.1,0.6c-2.6,0.5-4.1,4.2-4.1,10.3v44.5c0,5.9,1,9.6,4.2,10.3
	l4.1,0.7v7.3h-29.8v-7.3l2.8-0.7c3.2-0.8,4.3-4.4,4.3-10.3v-44.5h-0.3L392,311.9h-8.3l-12.3-62.7H371"/>
<path class="st0" d="M455.9,293.7c0,5.9,1,9.5,4.2,10.3l2.8,0.7v7.3h-23.5v-7.3l4.1-0.7c3.1-0.6,4.1-4.4,4.1-10.3v-44.5
	c0-6-1.6-9.8-4.1-10.3l-4.1-0.6v-7.3h28.8l8,39.5l7.6-39.5H512v7.3l-4.1,0.6c-2.6,0.5-4.1,4.2-4.1,10.3v44.5c0,5.9,1,9.6,4.2,10.3
	l4.1,0.7v7.3h-29.8v-7.3l2.8-0.7c3.2-0.8,4.2-4.4,4.2-10.3v-44.5h-0.3l-12.2,62.7h-8.3l-12.3-62.7h-0.3"/>
<path class="st0" d="M529.9,249.3c0-6-1.5-9.8-4.1-10.3l-4.1-0.6V231h31v7.3l-4.1,0.6c-2.6,0.5-4.1,4.2-4.1,10.3v44.5
	c0,5.9,1,9.7,4.2,10.3l4.1,0.7v7.3h-31.1v-7.3l4.1-0.7c3.1-0.6,4.1-4.4,4.1-10.3"/>
<path class="st0" d="M565.4,231h55.3v32.3h-7.6V256c0-7.6-1.9-16-7.5-16c-4.9,0-5.4,7.6-5.4,12.5v41.1c0,5.9,1,9.6,4.4,10.3l4,0.7
	v7.3h-31.1v-7.3l4.1-0.7c3.2-0.6,4.2-4.4,4.2-10.3v-41.1c0-4.9-0.5-12.5-5.4-12.5c-5.5,0-7.5,8.4-7.5,16v7.2h-7.6"/>
<polyline class="st0" points="356.8,355.2 356.8,335.6 367.1,335.6 367.1,338.9 360.6,338.9 360.6,343.4 365.5,343.4 365.5,346.7 
	360.6,346.7 360.6,351.9 367.3,351.9 367.3,355.2 "/>
<path class="st0" d="M381.3,341.1c-0.6-1.9-1.4-2.6-2.7-2.6c-1.3,0-2.1,0.8-2.1,2.1c0,3,8.4,3.2,8.4,9.3c0,3.4-2.3,5.6-6.2,5.6
	c-3,0-5.4-1.7-6.4-5.5l3.7-0.8c0.4,2.4,1.8,3.2,2.9,3.2c1.3,0,2.3-0.9,2.3-2.3c0-3.7-8.3-3.7-8.3-9.2c0-3.4,2-5.5,5.9-5.5
	c3.4,0,5.4,2,6,4.7"/>
<polyline class="st0" points="402.2,335.6 402.2,338.9 397.9,338.9 397.9,355.2 394.1,355.2 394.1,338.9 389.7,338.9 389.7,335.6 
	"/>
<rect x="403" y="351.4" class="st0" width="3.8" height="3.8"/>
<path class="st0" d="M428,340.2h-3v-2.1c2.9-0.6,3.4-1.6,4.3-2.7h2.1v19.9H428"/>
<path class="st0" d="M444.5,350.1c0,1.3,1.1,2.3,2.5,2.3c2,0,3-0.9,3-4.1v-1.8c-1.2,0.9-2.7,1.5-4.2,1.5c-3.4,0-5.2-2.7-5.2-5.8
	c0-4,1.9-6.8,6.4-6.8c4.2,0,6.5,2.6,6.5,6.8v6.6c0,4.2-2.3,6.8-6.5,6.8c-3.4,0-5.8-1.9-6.1-5.4 M449.9,342.5c0-3.2-1-4.1-3-4.1
	c-1.9,0-2.8,1.4-2.8,3.6c0,2.2,1.2,3.2,2.8,3.2c1.1,0,2.1-0.8,3-1.6V342.5z"/>
<path class="st0" d="M465.3,355.5c-3.7,0-6.6-2-6.6-5.8c0-2.2,0.8-3.9,2.9-4.7c-1.6-0.8-2.4-2.5-2.4-4.3c0-3.6,2.7-5.3,6.1-5.3
	c3.4,0,6.1,1.7,6.1,5.3c0,1.7-0.8,3.5-2.4,4.3c2.1,0.8,2.9,2.5,2.9,4.7C471.9,353.6,469,355.5,465.3,355.5 M465.3,346.5
	c-1.8,0-3,1.2-3,3c0,1.7,0.8,2.9,3,2.9c2.2,0,3-1.2,3-2.9C468.3,347.7,467.1,346.5,465.3,346.5 M465.3,338.5c-1.5,0-2.5,1.1-2.5,2.5
	c0,1.4,1.1,2.5,2.5,2.5c1.4,0,2.5-1.1,2.5-2.5C467.8,339.6,466.8,338.5,465.3,338.5"/>
<path class="st0" d="M481.5,340.2h-3v-2.1c2.9-0.6,3.4-1.6,4.3-2.7h2.1v19.9h-3.4"/>
<g>
	<path class="st0" d="M119.5,222.7c5.9,3.8,18.7-6.6,24.9-16.1c-1.3,0.7-2.8,1.1-4.5,1.1c-5.7,0-11.3-1.9-17.4-3.8
		c-0.9-0.3-1.9-0.6-3-0.9C119,213.5,113.6,218.8,119.5,222.7 M123.7,232.1c-1.6,2.6-2.5,5.6-2.2,8.2c2.8-2.2,11.4-3.1,16.1-0.8
		c1.3,0.6,2.6,1.2,0.3,2.4c-5,2.7-3.1,8.6-19.4,10.7c6.7,14.2,25.5,17,40.2,16.9c3.6,0,7-0.2,9.9-0.5c0-0.7,0-1.4,0-2.4
		c-0.2-21.5,0.1-43.1,0.1-64.7h-18.5C143.2,222.3,126.9,227,123.7,232.1 M105.1,218.4c-12.3-5.9-17.5-11.2-20.6-18.8
		c-6.2,0.5-12.2,1.7-17.7,3.6c0.9,0.6,1.9,1.3,3.2,2.2C85.3,216.4,94.7,215.2,105.1,218.4 M176.7,352.6c0-0.1-0.1-0.2-0.1-0.4
		c-5.4-30-27.2-34.7-45.7-46.5c-16.8-10.7-12.5-26-62.5-26c-6.4,0-4.8-4.2-6.9-5.6h0c-2.1-1.3-2.4-7.4-1.6-9
		c0.8-1.6,3.5-2.2,5.2-2.7c23.1-5.8,7.1-6.4,33-15.6c-4.4-2.7-5.1-9.2-2.2-6.2c13.2,13.8,29.6-12.8-1.5-19.3
		c-15.5-3.3-24-11.5-26.6-14.1c-1-1-2.2-2.2-3.1-3.3c-24.3,8.9-41.4,30.4-41.4,60.3c0,10.6,1,21.3,4.4,31.4
		c10.7,27.4,42,49.1,68.8,58.8c2-7.7-11.4-6.9-1.3-25c1.2-2.1,0.9-4.6,4.2-1.1c11.8,12.7,3.8,18.2,7.2,23.8c1.3,2.1,6.1,3.7,11.1,9
		c7.5,7.8,4.8,9.2,7,16.4c1.1,3.5,4,6.7,8.6,16.1c1.7,3.6,2,4.1,0.7,6.3c-1.8,3.1-1.9,3.5-5.7,3.6c-4.7,0.2-4.1-1-8.5-4.1
		c-11.6-8.3-15.1-8.2-20.2-11.5c-5-3.2-9.3-6.9-16.2-8.2c-12.7-2.4-24.1-3.7-40.9-12.2c-14.2-7.2-12.8,7.2-21.7,12.5l-0.3,11.1v48.6
		h18.9c3.4-6.8,7.5-14.3,13.6-14.3c6,0,12.8,3.4,21.5,7.6c8.3,4.1,21.1,9.1,35.5,9.1c38.5,0,67.9-28.7,67.9-71.3
		C178.1,364.7,177.7,358.6,176.7,352.6 M113.2,210.8c1.3-1.8,2.6-4.7,3.7-8.5c-7.1-1.6-16.6-3-25.5-3c-1.3,0-2.5,0-3.7,0.1
		C92.7,207.9,109.3,216.3,113.2,210.8"/>
</g>
<line class="st1" x1="225.3" y1="345.2" x2="342.4" y2="345.2"/>
<line class="st1" x1="499.3" y1="345.2" x2="616.3" y2="345.2"/>
</svg>
